<svg width="200" height="72" viewBox="0 0 200 72" fill="none" xmlns="http://www.w3.org/2000/svg">
<path d="M11.7186 1.78772C14.9884 4.1154 17.8241 9.71496 23.7171 25.4823C28.0468 37.0673 31.2519 44.025 33.0267 45.6915L34.2015 46.7948L35.4005 45.6686C37.2101 43.9693 40.8288 36.1054 44.9337 24.9525C50.5002 9.82882 53.9435 3.40413 57.6947 1.1422C59.6978 -0.0659373 62.9905 0.104616 65.1404 1.52666C68.7586 3.92008 71.4628 9.1147 77.5826 25.4289C81.9495 37.0701 84.565 42.8164 86.6039 45.246L87.9636 46.8667L89.2484 45.6757C90.9184 44.1284 94.4804 36.678 97.5615 28.2873C103.765 11.3952 105.925 6.86563 109.513 3.22739C111.421 1.29275 112.597 0.491449 113.787 0.317088C120.006 -0.595211 123.966 4.99721 131.4 25.1907C135.13 35.3227 139.321 44.4366 140.91 45.873C141.908 46.7748 141.933 46.7719 143.152 45.6348C144.967 43.9402 148.536 36.2436 152.63 25.1907C157.666 11.6001 160.728 5.44311 163.841 2.64476C165.211 1.41375 166.95 0.325661 167.799 0.169403C168.632 0.016003 175.671 -0.0444982 183.443 0.03506C196.552 0.169404 197.644 0.245151 198.574 1.08742C199.261 1.71007 199.576 2.56997 199.576 3.8267C199.576 6.12627 198.257 7.55879 196.121 7.57785C195.27 7.58547 188.534 7.57927 181.154 7.56451L167.735 7.53735L166.754 8.78456C165.14 10.835 162.739 16.2945 158.587 27.354C151.037 47.4627 147.579 52.8217 142.153 52.8217C136.482 52.8217 133.018 47.6209 125.811 28.2873C120.282 13.4551 116.862 6.61124 114.981 6.61124C113.216 6.61124 109.89 13.2646 104.858 26.8581C98.7392 43.3862 96.0198 48.6766 92.2319 51.4197C88.9191 53.8183 84.7695 53.0713 81.8099 49.5441C79.6024 46.9125 75.6195 38.3473 71.8145 28.0491C66.5945 13.922 62.9538 6.61124 61.139 6.61124C59.3404 6.61124 55.9752 13.4137 50.4154 28.2873C45.3921 41.7245 42.7557 47.1688 39.8762 50.0505C34.566 55.3647 28.8504 53.0046 24.2542 43.601C23.1628 41.3682 20.1613 34.0083 17.5839 27.2449C12.7265 14.4994 11.079 10.7911 9.10307 8.15953C7.70238 6.29348 7.07996 6.23441 5.58539 7.82462C4.10178 9.40292 2.02102 9.25429 0.698016 7.47542C-0.145539 6.34112 -0.183189 6.02622 0.363453 4.70708C2.10204 0.510503 7.8487 -0.966801 11.7186 1.78772Z" fill="url(#paint0_linear_175_621)"/>
<path d="M198.474 41.9475C200.074 43.4505 199.998 46.2279 198.321 47.5466C197.114 48.4955 196.51 48.5341 182.81 48.5341H168.555L167.385 47.3646C166.648 46.6276 166.215 45.651 166.215 44.723C166.215 43.7949 166.648 42.8183 167.385 42.0813L168.555 40.9118H182.963C197.1 40.9118 197.391 40.9313 198.474 41.9475Z" fill="url(#paint1_linear_175_621)"/>
<path d="M190.802 23.4309C192.212 25.0702 192.262 26.5723 190.963 28.223L189.976 29.4783H179.199C168.79 29.4783 168.384 29.443 167.318 28.4426C166.091 27.2897 165.836 24.8953 166.811 23.6734C168.152 21.9936 169.189 21.8545 179.483 21.975L189.652 22.0941L190.802 23.4309Z" fill="url(#paint2_linear_175_621)"/>
<path d="M120.277 23.4428C121.677 25.0706 121.725 26.5756 120.429 28.223C119.487 29.4192 119.231 29.4783 114.983 29.4783C110.734 29.4783 110.478 29.4192 109.537 28.223C108.351 26.7171 108.28 25.3098 109.315 23.8334C110.44 22.2266 111.722 21.8531 115.63 21.9927C118.797 22.1056 119.247 22.2461 120.277 23.4428Z" fill="url(#paint3_linear_175_621)"/>
<path d="M195.75 69.5814V63.5349H196.838V69.5814H195.75ZM195.689 62.3256V61.1163H196.899V62.3256H195.689Z" fill="white"/>
<path d="M189.282 69.5814L188.254 68.5535V66.921L189.403 65.7721H192.91V65.1675L192.305 64.5628H189.04V63.5349H192.789L193.998 64.7442V69.5814H193.152V68.9768H192.934L192.184 69.5814H189.282ZM189.766 68.5535H191.882L192.91 67.7191V66.8H189.886L189.342 67.3442V68.1303L189.766 68.5535Z" fill="white"/>
<path d="M185.049 69.5814V64.5628H183.84V63.5349H185.049V61.9024L185.835 61.1163H188.375V62.1442H186.319L186.138 62.3256V63.5349H188.314V64.5628H186.138V69.5814H185.049Z" fill="white"/>
<path d="M178.395 69.5814L177.004 68.1907V64.9256L178.395 63.5349H181.599L182.99 64.9256V67.1628H178.092V67.7675L178.878 68.5535H182.567V69.5814H178.395ZM178.092 66.1349H181.902V65.3489L181.116 64.5628H178.878L178.092 65.3489V66.1349Z" fill="white"/>
<path d="M167.566 69.5814V61.1163H173.552L175.245 62.8094V67.8884L173.552 69.5814H167.566ZM168.715 68.5535H173.008L174.097 67.4652V63.2326L173.008 62.1442H168.715V68.5535Z" fill="white"/>
<path d="M160.857 69.5814L159.467 68.1907V64.9256L160.857 63.5349H164.183L165.574 64.9256V68.1907L164.183 69.5814H160.857ZM161.341 68.5535H163.699L164.485 67.7675V65.3489L163.699 64.5628H161.341L160.555 65.3489V67.7675L161.341 68.5535Z" fill="white"/>
<path d="M151.234 69.5814V61.1163H152.383V64.8047H154.584L157.245 61.1163H158.309V61.5396L155.588 65.2884L158.551 69.1582V69.5814H157.438L154.584 65.8326H152.383V69.5814H151.234Z" fill="white"/>
<path d="M139.742 72V70.9721H143.491L143.914 70.5489V69.2791H143.72L143.358 69.5814H140.709L139.439 68.3117V63.5349H140.528V67.8884L141.193 68.5535H143.055L143.914 67.84V63.5349H145.002V70.9721L143.974 72H139.742Z" fill="white"/>
<path d="M131.943 69.5814V61.1163H133.032V63.9582H133.249L133.757 63.5349H136.418L137.808 64.9256V68.1908L136.418 69.5814H131.943ZM133.032 68.5535H135.934L136.72 67.7675V65.3489L135.934 64.5628H134.06L133.032 65.4094V68.5535Z" fill="white"/>
<defs>
<linearGradient id="paint0_linear_175_621" x1="2.14463" y1="26.2018" x2="197.544" y2="26.2018" gradientUnits="userSpaceOnUse">
<stop stop-color="#FCAC17"/>
<stop offset="0.25" stop-color="#FE7A2E"/>
<stop offset="0.5" stop-color="#F45B58"/>
<stop offset="0.75" stop-color="#9968E2"/>
<stop offset="1" stop-color="#5D78F8"/>
</linearGradient>
<linearGradient id="paint1_linear_175_621" x1="2.14463" y1="26.2018" x2="197.544" y2="26.2018" gradientUnits="userSpaceOnUse">
<stop stop-color="#FCAC17"/>
<stop offset="0.25" stop-color="#FE7A2E"/>
<stop offset="0.5" stop-color="#F45B58"/>
<stop offset="0.75" stop-color="#9968E2"/>
<stop offset="1" stop-color="#5D78F8"/>
</linearGradient>
<linearGradient id="paint2_linear_175_621" x1="2.14463" y1="26.2018" x2="197.544" y2="26.2018" gradientUnits="userSpaceOnUse">
<stop stop-color="#FCAC17"/>
<stop offset="0.25" stop-color="#FE7A2E"/>
<stop offset="0.5" stop-color="#F45B58"/>
<stop offset="0.75" stop-color="#9968E2"/>
<stop offset="1" stop-color="#5D78F8"/>
</linearGradient>
<linearGradient id="paint3_linear_175_621" x1="2.14463" y1="26.2018" x2="197.544" y2="26.2018" gradientUnits="userSpaceOnUse">
<stop stop-color="#FCAC17"/>
<stop offset="0.25" stop-color="#FE7A2E"/>
<stop offset="0.5" stop-color="#F45B58"/>
<stop offset="0.75" stop-color="#9968E2"/>
<stop offset="1" stop-color="#5D78F8"/>
</linearGradient>
</defs>
</svg>
